<?xml version="1.0" encoding="utf-8"?>
<svg width="264.11838px" height="63.00003px" viewBox="0 0 264.11838 63.00003" version="1.1" xmlns:xlink="http://www.w3.org/1999/xlink" xmlns="http://www.w3.org/2000/svg">
  <defs>
    <path d="M0 0L201 0L201 44L0 44L0 0Z" id="path_1" />
    <clipPath id="clip_1">
      <use xlink:href="#path_1" clip-rule="evenodd" fill-rule="evenodd" />
    </clipPath>
  </defs>
  <g id="Group-2">
    <g id="Group" transform="translate(201.11835 0)">
      <g id="g12">
        <g id="g78">
          <g id="g74">
            <path d="M0 31.5C0 14.103 14.103 0 31.5 0C48.897 0 63 14.103 63 31.5C63 48.897 48.897 63 31.5 63C14.103 63 0 48.897 0 31.5Z" id="circle37" fill="#007BFF" fill-rule="evenodd" stroke="none" />
            <path d="M16.7344 19.1953C16.7344 19.1953 16.7344 43.8795 16.7344 43.8795C16.7344 43.8795 12.7969 48.7266 12.7969 48.7266C12.7969 48.7266 31.5 48.7266 31.5 48.7266C31.5 48.7266 50.2031 48.7266 50.2031 48.7266C50.2031 48.7266 46.2656 43.8795 46.2656 43.8795C46.2656 43.8795 46.2656 19.1953 46.2656 19.1953C46.2656 19.1953 16.7344 19.1953 16.7344 19.1953Z" id="polygon37" fill="#F5F5F5" fill-rule="evenodd" stroke="none" />
            <path d="M50.2031 48.7266C50.2031 48.7266 46.2656 43.8047 46.2656 43.8047C46.2656 43.8047 16.7344 43.8047 16.7344 43.8047C16.7344 43.8047 12.7969 48.7266 12.7969 48.7266C12.7969 48.7266 31.5 48.7266 31.5 48.7266C31.5 48.7266 50.2031 48.7266 50.2031 48.7266Z" id="polygon38" fill="#E6E6E6" fill-rule="evenodd" stroke="none" />
            <path d="M48.2344 48.7266C48.2344 48.7266 50.2031 48.7266 50.2031 48.7266C50.2031 48.7266 46.2656 43.8047 46.2656 43.8047C46.2656 43.8047 44.2969 43.8047 44.2969 43.8047C44.2969 43.8047 48.2344 48.7266 48.2344 48.7266Z" id="polygon39" fill="#CCCCCC" fill-rule="evenodd" stroke="none" />
            <path d="M16.7344 12.7969L46.2656 12.7969L46.2656 16.2422L16.7344 16.2422L16.7344 12.7969Z" id="rect39" fill="#B3B3B3" fill-rule="evenodd" stroke="none" />
            <path d="M27.0703 39.8672L27.0703 28.5469C27.0703 25.8423 29.1838 23.625 31.9922 23.625C34.8001 23.625 36.914 25.8423 36.914 28.5469L36.914 39.8672L27.0703 39.8672Z" id="path39" fill="#007BFF" stroke="none" />
            <path d="M28.0547 38.8828L28.0547 28.5469C28.0547 26.3389 29.7842 24.6094 31.9922 24.6094C34.2001 24.6094 35.9297 26.3389 35.9297 28.5469L35.9297 38.8828L28.0547 38.8828Z" id="path40" fill="#007BFF" stroke="none" />
            <path d="M16.7344 19.1953L46.2656 19.1953L46.2656 19.6875L16.7344 19.6875L16.7344 19.1953Z" id="rect40" fill="#E6E6E6" fill-rule="evenodd" stroke="none" />
            <path d="M12.7969 56.8442C18.0278 60.7113 24.4962 63 31.5 63C38.5038 63 44.9721 60.7113 50.2031 56.8442L50.2031 48.7266L12.7969 48.7266L12.7969 56.8442Z" id="path41" fill="#CCCCCC" stroke="none" />
            <path d="M48.2344 58.2058C48.9089 57.7825 49.5691 57.3364 50.208 56.8642L50.208 48.7265L48.2344 48.7265L48.2344 58.2058ZM12.7968 16.2422C12.7968 16.2422 50.2958 16.2422 50.2958 16.2422C50.2958 16.2422 46.3485 19.2027 46.3485 19.2027C46.3485 19.2027 16.7441 19.2027 16.7441 19.2027C16.7441 19.2027 12.7968 16.2422 12.7968 16.2422Z" id="g42" fill="#B3B3B3" fill-rule="evenodd" stroke="none" />
            <path d="M46.2656 19.1953C46.2656 19.1953 50.2031 16.2422 50.2031 16.2422C50.2031 16.2422 48.2344 16.2422 48.2344 16.2422C48.2344 16.2422 44.2969 19.1953 44.2969 19.1953C44.2969 19.1953 46.2656 19.1953 46.2656 19.1953Z" id="polygon43" fill="#A6A6A6" fill-rule="evenodd" stroke="none" />
            <path d="M44.2969 19.1953L46.2656 19.1953L46.2656 43.8047L44.2969 43.8047L44.2969 19.1953Z" id="rect44" fill="#E6E6E6" fill-rule="evenodd" stroke="none" />
            <path d="M50.2031 16.2422L50.2031 11.3203C50.2031 9.35156 49.7109 8.85938 47.7422 8.85938L44.7891 8.85938C44.5183 8.85938 44.2969 9.08086 44.2969 9.35156L44.2969 14.2734C44.2969 14.5441 44.0754 14.7656 43.8047 14.7656L40.8516 14.7656C40.5809 14.7656 40.3594 14.5441 40.3594 14.2734L40.3594 9.35156C40.3594 9.08086 40.1379 8.85938 39.8672 8.85938L34.9453 8.85938C34.6746 8.85938 34.4531 9.08086 34.4531 9.35156L34.4531 14.2734C34.4531 14.5441 34.2316 14.7656 33.9609 14.7656L29.0391 14.7656C28.7684 14.7656 28.5469 14.5441 28.5469 14.2734L28.5469 9.35156C28.5469 9.08086 28.3254 8.85938 28.0547 8.85938L23.1328 8.85938C22.8621 8.85938 22.6406 9.08086 22.6406 9.35156L22.6406 14.2734C22.6406 14.5441 22.4191 14.7656 22.1484 14.7656L19.1953 14.7656C18.9246 14.7656 18.7031 14.5441 18.7031 14.2734L18.7031 9.35156C18.7031 9.08086 18.4816 8.85938 18.2109 8.85938L15.2578 8.85938C13.2891 8.85938 12.7969 9.35156 12.7969 11.3203L12.7969 16.2422L50.2031 16.2422Z" id="path44" fill="#F5F5F5" stroke="none" />
            <path d="M44.2969 10.8253L44.2969 9.84375L45.7771 9.84375C46.0485 9.84375 46.2705 10.0646 46.2705 10.3345C46.2705 10.6045 46.0485 10.8253 45.7771 10.8253L44.2969 10.8253ZM35.4362 11.3175C35.1663 11.3175 34.9454 11.0966 34.9454 10.8267C34.9454 10.5568 35.1663 10.3359 35.4362 10.3359L37.3993 10.3359C37.6693 10.3359 37.8901 10.5568 37.8901 10.8267C37.8901 11.0966 37.6693 11.3175 37.3993 11.3175L35.4362 11.3175ZM12.7968 11.8097L12.7968 10.8282L14.2692 10.8282C14.5391 10.8282 14.76 11.049 14.76 11.3189C14.76 11.5889 14.5391 11.8097 14.2692 11.8097L12.7968 11.8097ZM36.9125 13.7837C36.6426 13.7837 36.4218 13.5616 36.4218 13.2903C36.4218 13.0189 36.6426 12.7968 36.9125 12.7968L38.8757 12.7968C39.1456 12.7968 39.3665 13.0189 39.3665 13.2903C39.3665 13.5616 39.1456 13.7837 38.8757 13.7837L36.9125 13.7837ZM22.6406 14.2759L22.6406 13.2891L24.1129 13.2891C24.3829 13.2891 24.6037 13.5111 24.6037 13.7825C24.6037 14.0538 24.3829 14.2759 24.1129 14.2759L22.6406 14.2759ZM21.1702 20.6718C21.4416 20.6718 21.6636 20.8939 21.6636 21.1653C21.6636 21.4367 21.4416 21.6587 21.1702 21.6587L19.1966 21.6587C18.9252 21.6587 18.7032 21.4367 18.7032 21.1653C18.7032 20.8939 18.9252 20.6718 19.1966 20.6718L21.1702 20.6718ZM36.907 21.1641C37.177 21.1641 37.3978 21.3862 37.3978 21.6575C37.3978 21.9289 37.177 22.1509 36.907 22.1509L34.9439 22.1509C34.674 22.1509 34.4531 21.9289 34.4531 21.6575C34.4531 21.3862 34.674 21.1641 34.9439 21.1641L36.907 21.1641ZM24.1233 23.625C24.3947 23.625 24.6167 23.8471 24.6167 24.1184C24.6167 24.3898 24.3947 24.6119 24.1233 24.6119L22.1497 24.6119C21.8783 24.6119 21.6563 24.3898 21.6563 24.1184C21.6563 23.8471 21.8783 23.625 22.1497 23.625L24.1233 23.625ZM21.1702 25.5937C21.4416 25.5937 21.6636 25.8158 21.6636 26.0871C21.6636 26.3585 21.4416 26.5805 21.1702 26.5805L19.1966 26.5805C18.9252 26.5805 18.7032 26.3585 18.7032 26.0871C18.7032 25.8158 18.9252 25.5937 19.1966 25.5937L21.1702 25.5937ZM39.3735 26.5805C39.1036 26.5805 38.8827 26.3585 38.8827 26.0871C38.8827 25.8158 39.1036 25.5937 39.3735 25.5937L41.3366 25.5937C41.6066 25.5937 41.8274 25.8158 41.8274 26.0871C41.8274 26.3585 41.6066 26.5805 41.3366 26.5805L39.3735 26.5805ZM22.6467 28.0546C22.9181 28.0546 23.1401 28.2767 23.1401 28.548C23.1401 28.8194 22.9181 29.0415 22.6467 29.0415L20.6731 29.0415C20.4017 29.0415 20.1797 28.8194 20.1797 28.548C20.1797 28.2767 20.4017 28.0546 20.6731 28.0546L22.6467 28.0546ZM37.8971 29.0415C37.6272 29.0415 37.4063 28.8194 37.4063 28.548C37.4063 28.2767 37.6272 28.0546 37.8971 28.0546L39.8603 28.0546C40.1302 28.0546 40.351 28.2767 40.351 28.548C40.351 28.8194 40.1302 29.0415 39.8603 29.0415L37.8971 29.0415ZM40.8501 31.0103C40.5802 31.0103 40.3593 30.7882 40.3593 30.5168C40.3593 30.2455 40.5802 30.0234 40.8501 30.0234L42.8132 30.0234C43.0832 30.0234 43.304 30.2455 43.304 30.5168C43.304 30.7882 43.0832 31.0103 42.8132 31.0103L40.8501 31.0103ZM39.3735 33.4713C39.1036 33.4713 38.8827 33.2492 38.8827 32.9778C38.8827 32.7065 39.1036 32.4844 39.3735 32.4844L41.3366 32.4844C41.6066 32.4844 41.8274 32.7065 41.8274 32.9778C41.8274 33.2492 41.6066 33.4713 41.3366 33.4713L39.3735 33.4713ZM41.3366 35.9297C41.6066 35.9297 41.8274 36.1518 41.8274 36.4231C41.8274 36.6945 41.6066 36.9165 41.3366 36.9165L39.3735 36.9165C39.1036 36.9165 38.8827 36.6945 38.8827 36.4231C38.8827 36.1518 39.1036 35.9297 39.3735 35.9297L41.3366 35.9297ZM16.7344 39.3775L16.7344 38.3907L18.2068 38.3907C18.4767 38.3907 18.6975 38.6128 18.6975 38.8841C18.6975 39.1555 18.4767 39.3775 18.2068 39.3775L16.7344 39.3775Z" id="g60" fill="#CCCCCC" fill-rule="evenodd" stroke="none" />
            <path d="M12.7969 49.2188L14.2734 49.2188C14.5441 49.2188 14.7656 49.4403 14.7656 49.711L14.7656 49.711C14.7656 49.9817 14.5441 50.2031 14.2734 50.2031L12.7969 50.2031L12.7969 49.2188Z" id="path61" fill="#B3B3B3" stroke="none" />
            <path d="M48.7278 49.2188L50.208 49.2188L50.208 50.2056L48.7278 50.2056C48.4565 50.2056 48.2344 49.9836 48.2344 49.7122C48.2344 49.4408 48.4565 49.2188 48.7278 49.2188ZM48.7278 54.1407L50.208 54.1407L50.208 55.1224L48.7278 55.1224C48.4565 55.1224 48.2344 54.9015 48.2344 54.6316C48.2344 54.3616 48.4565 54.1407 48.7278 54.1407Z" id="g63" fill="#999999" fill-rule="evenodd" stroke="none" />
            <path d="M23.134 33.4713C22.8626 33.4713 22.6406 33.2492 22.6406 32.9778C22.6406 32.7065 22.8626 32.4844 23.134 32.4844L25.1076 32.4844C25.379 32.4844 25.601 32.7065 25.601 32.9778C25.601 33.2492 25.379 33.4713 25.1076 33.4713L23.134 33.4713ZM25.5998 34.453C25.8712 34.453 26.0932 34.6751 26.0932 34.9464C26.0932 35.2178 25.8712 35.4399 25.5998 35.4399L23.6262 35.4399C23.3548 35.4399 23.1328 35.2178 23.1328 34.9464C23.1328 34.6751 23.3548 34.453 23.6262 34.453L25.5998 34.453ZM41.8289 34.453C42.0988 34.453 42.3197 34.6751 42.3197 34.9464C42.3197 35.2178 42.0988 35.4399 41.8289 35.4399L39.8658 35.4399C39.5958 35.4399 39.375 35.2178 39.375 34.9464C39.375 34.6751 39.5958 34.453 39.8658 34.453L41.8289 34.453Z" id="g66" fill="#CCCCCC" fill-rule="evenodd" stroke="none" />
            <path d="M22.6468 51.1874C22.9181 51.1874 23.1402 51.4094 23.1402 51.6808C23.1402 51.9522 22.9181 52.1742 22.6468 52.1742L20.6731 52.1742C20.4018 52.1742 20.1797 51.9522 20.1797 51.6808C20.1797 51.4094 20.4018 51.1874 20.6731 51.1874L22.6468 51.1874ZM22.1545 52.6641C22.4259 52.6641 22.6479 52.8849 22.6479 53.1548C22.6479 53.4248 22.4259 53.6456 22.1545 53.6456L20.1809 53.6456C19.9095 53.6456 19.6875 53.4248 19.6875 53.1548C19.6875 52.8849 19.9095 52.6641 20.1809 52.6641L22.1545 52.6641ZM45.7665 52.6641C46.0364 52.6641 46.2573 52.8849 46.2573 53.1548C46.2573 53.4248 46.0364 53.6456 45.7665 53.6456L43.8033 53.6456C43.5334 53.6456 43.3126 53.4248 43.3126 53.1548C43.3126 52.8849 43.5334 52.6641 43.8033 52.6641L45.7665 52.6641ZM31.9851 53.1562C32.2551 53.1562 32.4759 53.3771 32.4759 53.647C32.4759 53.917 32.2551 54.1378 31.9851 54.1378L30.022 54.1378C29.7521 54.1378 29.5312 53.917 29.5312 53.647C29.5312 53.3771 29.7521 53.1562 30.022 53.1562L31.9851 53.1562ZM35.4304 55.125C35.7003 55.125 35.9212 55.3458 35.9212 55.6157C35.9212 55.8857 35.7003 56.1065 35.4304 56.1065L33.4673 56.1065C33.1973 56.1065 32.9765 55.8857 32.9765 55.6157C32.9765 55.3458 33.1973 55.125 33.4673 55.125L35.4304 55.125ZM18.7093 55.6171C18.9806 55.6171 19.2027 55.838 19.2027 56.1079C19.2027 56.3779 18.9806 56.5987 18.7093 56.5987L16.7356 56.5987C16.4643 56.5987 16.2422 56.3779 16.2422 56.1079C16.2422 55.838 16.4643 55.6171 16.7356 55.6171L18.7093 55.6171ZM37.8914 57.0938C38.1613 57.0938 38.3822 57.3147 38.3822 57.5846C38.3822 57.8545 38.1613 58.0754 37.8914 58.0754L35.9282 58.0754C35.6583 58.0754 35.4375 57.8545 35.4375 57.5846C35.4375 57.3147 35.6583 57.0938 35.9282 57.0938L37.8914 57.0938Z" id="g73" fill="#B3B3B3" fill-rule="evenodd" stroke="none" />
          </g>
          <path d="M28.9035 38.0667C28.9616 38.1406 29.0505 38.1837 29.1447 38.1837L34.6899 38.1837C34.8597 38.1837 34.9976 38.0458 34.9976 37.8759C34.9976 37.8301 34.9878 37.7864 34.9696 37.7473L33.495 31.5341C34.2335 31.0193 34.6837 30.1678 34.6837 29.2597C34.6837 27.7328 33.4415 26.4902 31.9142 26.4902C30.387 26.4902 29.1447 27.7328 29.1447 29.2597C29.1447 30.1678 29.5949 31.0193 30.3338 31.5341L28.8456 37.8049C28.8234 37.8966 28.845 37.9929 28.9035 38.0667Z" id="g77" fill="#FFFFFF" fill-rule="evenodd" stroke="#FFFFFF" stroke-width="0" />
        </g>
      </g>
    </g>
    <g id="KeyFortress" clip-path="url(#clip_1)" transform="translate(0 9)">
      <g transform="translate(0, 9.9)" id="KeyFortress" fill="#007BFF">
        <path d="M18.18 36.9L24.624 36.9L15.408 22.104L23.868 11.772L17.676 11.772L12.024 18.864L8.46 23.724L8.244 23.724L8.244 11.772L2.772 11.772L2.772 36.9L8.244 36.9L8.244 29.916L11.52 25.956L18.18 36.9ZM33.524 37.332C36.98 37.332 39.752 36.144 41.444 34.2L38.78 30.888C37.592 32.112 36.368 33.156 34.136 33.156C31.292 33.156 29.96 31.572 29.96 29.088L29.96 28.8L42.092 28.8L42.092 27.216C42.092 22.104 39.572 17.568 33.308 17.568C27.62 17.568 24.452 21.456 24.452 27.432C24.452 33.48 27.728 37.332 33.524 37.332ZM33.416 21.492C35.54 21.492 36.584 23.04 36.584 25.344L36.584 25.668L29.96 25.668L29.96 25.38C29.96 23.04 31.292 21.492 33.416 21.492ZM53.404 26.82L52 32.292L51.784 32.292L50.416 26.82L47.644 18L42.352 18L48.976 37.872L48.328 39.96L44.764 39.96L44.764 44.1L48.076 44.1C51.316 44.1 52.9 42.732 53.872 39.816L61.144 18L56.176 18L53.404 26.82ZM68.604 36.9L68.604 26.604L78.144 26.604L78.144 21.78L68.604 21.78L68.604 16.632L79.8 16.632L79.8 11.772L63.132 11.772L63.132 36.9L68.604 36.9ZM89.42 37.332C94.964 37.332 98.276 33.516 98.276 27.432C98.276 21.348 94.964 17.568 89.42 17.568C83.876 17.568 80.564 21.348 80.564 27.432C80.564 33.516 83.876 37.332 89.42 37.332ZM89.42 33.12C87.332 33.12 86.108 31.752 86.108 29.376L86.108 25.524C86.108 23.148 87.332 21.78 89.42 21.78C91.508 21.78 92.732 23.148 92.732 25.524L92.732 29.376C92.732 31.752 91.508 33.12 89.42 33.12ZM106.384 36.9L106.384 25.848C106.384 23.652 107.896 22.968 110.992 22.968L112.324 22.968L112.324 18L111.388 18C108.436 18 106.996 20.016 106.564 22.104L106.384 22.104L106.384 18L101.056 18L101.056 36.9L106.384 36.9ZM124.536 36.9L124.536 32.76L121.08 32.76L121.08 22.14L124.824 22.14L124.824 18L121.08 18L121.08 12.888L116.292 12.888L116.292 15.984C116.292 17.28 115.86 18 114.42 18L113.088 18L113.088 22.14L115.752 22.14L115.752 31.392C115.752 34.992 117.696 36.9 121.368 36.9L124.536 36.9ZM132.86 36.9L132.86 25.848C132.86 23.652 134.372 22.968 137.468 22.968L138.8 22.968L138.8 18L137.864 18C134.912 18 133.472 20.016 133.04 22.104L132.86 22.104L132.86 18L127.532 18L127.532 36.9L132.86 36.9ZM148.78 37.332C152.236 37.332 155.008 36.144 156.7 34.2L154.036 30.888C152.848 32.112 151.624 33.156 149.392 33.156C146.548 33.156 145.216 31.572 145.216 29.088L145.216 28.8L157.348 28.8L157.348 27.216C157.348 22.104 154.828 17.568 148.564 17.568C142.876 17.568 139.708 21.456 139.708 27.432C139.708 33.48 142.984 37.332 148.78 37.332ZM148.672 21.492C150.796 21.492 151.84 23.04 151.84 25.344L151.84 25.668L145.216 25.668L145.216 25.38C145.216 23.04 146.548 21.492 148.672 21.492ZM166.536 37.332C171.396 37.332 174.636 34.668 174.636 31.032C174.636 27.756 172.512 25.884 168.408 25.344L166.284 25.056C164.736 24.84 164.304 24.3 164.304 23.292C164.304 22.356 165.024 21.708 166.824 21.708C168.408 21.708 169.992 22.464 171.18 23.652L174.24 20.52C172.332 18.648 170.496 17.568 166.536 17.568C162.036 17.568 159.192 20.088 159.192 23.724C159.192 27.144 161.28 29.016 165.564 29.556L167.616 29.808C168.948 29.988 169.524 30.456 169.524 31.392C169.524 32.508 168.804 33.192 166.716 33.192C164.664 33.192 163.044 32.256 161.712 30.78L158.58 33.948C160.524 36.108 162.9 37.332 166.536 37.332ZM183.428 37.332C188.288 37.332 191.528 34.668 191.528 31.032C191.528 27.756 189.404 25.884 185.3 25.344L183.176 25.056C181.628 24.84 181.196 24.3 181.196 23.292C181.196 22.356 181.916 21.708 183.716 21.708C185.3 21.708 186.884 22.464 188.072 23.652L191.132 20.52C189.224 18.648 187.388 17.568 183.428 17.568C178.928 17.568 176.084 20.088 176.084 23.724C176.084 27.144 178.172 29.016 182.456 29.556L184.508 29.808C185.84 29.988 186.416 30.456 186.416 31.392C186.416 32.508 185.696 33.192 183.608 33.192C181.556 33.192 179.936 32.256 178.604 30.78L175.472 33.948C177.416 36.108 179.792 37.332 183.428 37.332Z" />
      </g>
    </g>
  </g>
</svg>